<svg xmlns="http://www.w3.org/2000/svg" width="1024" height="1024" viewBox="0 0 1024 1024">
<g>
<path d="M 0.00 0.00 L 1024.00 0.00 L 1024.00 1024.00 L 0.00 1024.00 ZM 792.52 665.18 C793.04,666.54 808.88,666.65 862.00,665.64 C883.91,665.22 890.86,663.72 906.75,655.96 C921.50,648.77 932.75,637.83 940.85,622.81 C951.24,603.53 953.27,576.30 946.00,553.68 C941.90,540.94 936.95,532.92 927.02,522.97 C913.68,509.60 897.92,502.51 876.00,499.99 C871.33,499.46 850.51,499.01 829.75,499.01 L 792.00 499.00 L 792.00 581.42 C792.00,626.75 792.23,664.44 792.52,665.18 ZM 616.00 498.95 L 616.00 666.04 L 634.75 665.77 L 653.50 665.50 L 654.00 615.58 L 654.50 565.67 L 657.50 569.11 C659.15,571.01 667.03,580.82 675.00,590.91 C682.97,601.00 699.64,621.91 712.03,637.38 L 734.57 665.50 L 766.50 665.50 L 767.01 499.00 L 729.00 499.00 L 728.95 501.25 C728.93,502.49 728.95,524.54 729.00,550.25 C729.05,578.22 728.72,597.00 728.17,597.00 C727.66,597.00 724.75,593.74 721.71,589.75 C718.66,585.76 713.95,579.80 711.23,576.50 C708.51,573.20 697.49,559.47 686.74,546.00 C675.98,532.53 663.20,516.55 658.32,510.50 L 649.46 499.50 L 632.73 499.23 ZM 487.25 666.23 C511.27,666.59 591.15,666.02 592.75,665.48 C593.68,665.17 594.00,660.97 594.00,649.03 L 594.00 633.00 L 507.00 633.00 L 507.00 597.02 L 580.50 596.50 L 580.78 580.76 L 581.05 565.02 L 544.28 564.76 L 507.50 564.50 L 506.95 532.02 L 590.50 531.50 L 590.77 515.24 L 591.05 498.98 L 529.77 499.24 L 468.50 499.50 L 468.61 555.50 C468.66,586.30 468.78,623.75 468.86,638.73 L 469.00 665.95 ZM 377.00 669.39 C383.39,670.12 398.39,668.91 406.50,667.02 C421.70,663.47 436.02,655.34 445.37,644.94 C447.92,642.10 450.00,639.48 450.00,639.12 C450.00,638.50 444.27,632.81 431.28,620.56 L 426.06 615.64 L 420.23 621.20 C407.65,633.20 390.59,637.69 373.64,633.47 C366.98,631.81 360.00,629.06 360.00,628.09 C360.00,626.85 390.54,591.75 392.13,591.16 C392.64,590.97 394.91,592.50 397.19,594.55 C402.65,599.48 403.06,598.83 405.89,580.80 C408.45,564.44 408.94,557.44 407.50,557.64 C405.99,557.84 370.56,569.17 370.10,569.60 C369.88,569.80 371.68,571.74 374.10,573.91 L 378.50 577.85 L 372.41 584.18 C369.06,587.65 362.56,594.78 357.95,600.00 C348.52,610.69 345.48,613.42 343.99,612.49 C342.36,611.49 337.83,601.98 336.36,596.50 C334.48,589.47 334.62,572.65 336.61,565.93 C340.26,553.63 345.56,545.84 354.72,539.31 C363.60,532.97 370.98,530.82 384.01,530.76 C400.41,530.70 410.69,534.56 421.15,544.72 L 425.81 549.24 L 438.03 537.29 C438.59,536.75 439.12,536.23 439.63,535.73 C446.37,529.16 449.32,526.28 449.06,523.72 C448.83,521.53 446.22,519.58 441.57,515.74 C432.49,508.25 420.80,502.34 409.29,499.42 C401.00,497.32 397.12,496.93 384.00,496.89 C370.63,496.86 367.17,497.20 358.80,499.35 C341.19,503.89 323.59,514.93 313.48,527.78 C297.43,548.18 291.55,578.23 298.18,606.00 C298.77,608.47 300.99,614.25 303.11,618.84 C316.51,647.89 342.18,665.45 377.00,669.39 ZM 102.01 665.27 C102.01,665.69 113.35,665.91 127.23,665.77 L 152.45 665.50 L 197.97 607.04 L 199.90 598.21 C203.50,581.70 209.02,571.43 223.59,554.10 C230.66,545.69 236.50,538.67 265.34,503.94 C269.65,498.75 280.74,485.50 289.97,474.50 C326.26,431.29 345.57,407.90 379.51,366.00 C395.54,346.22 398.04,343.00 397.37,343.00 C395.64,343.00 391.62,347.11 308.56,433.99 C291.48,451.86 271.42,472.78 264.00,480.50 C256.58,488.21 239.54,506.21 226.14,520.51 C212.74,534.80 201.44,546.63 201.03,546.78 C200.63,546.94 193.29,538.39 184.72,527.78 C176.16,517.18 167.43,506.38 165.32,503.80 L 161.50 499.10 L 135.75 499.05 L 110.01 499.00 L 118.48 509.75 C128.31,522.22 145.99,544.12 161.00,562.43 C162.00,563.65 162.92,564.77 163.77,565.81 C171.72,575.49 173.26,577.36 172.83,578.49 C172.69,578.88 172.30,579.18 171.87,579.69 C168.36,583.79 125.72,635.27 117.92,644.82 C104.70,661.01 102.03,664.44 102.01,665.27 ZM 243.41 660.69 L 247.50 665.89 L 272.69 665.94 C288.80,665.98 298.11,665.63 298.51,664.98 C298.86,664.42 297.87,662.24 296.32,660.14 C292.63,655.15 270.21,626.49 252.21,603.77 C244.36,593.84 238.06,585.43 238.21,585.08 C238.37,584.73 242.36,579.28 247.07,572.97 C251.79,566.66 261.24,553.86 268.07,544.51 C274.91,535.17 283.20,523.86 286.50,519.39 C289.80,514.92 296.33,505.98 301.00,499.52 C305.67,493.06 311.33,485.47 313.57,482.64 C315.81,479.81 319.52,474.80 321.81,471.50 C324.10,468.20 329.80,460.33 334.47,454.00 C339.14,447.67 351.74,430.35 362.47,415.50 C373.19,400.65 387.00,381.52 393.16,373.00 C411.50,347.62 415.94,341.08 415.18,340.61 C414.78,340.36 408.61,347.15 401.48,355.68 C394.34,364.22 384.45,376.03 379.50,381.92 C361.21,403.71 331.00,439.99 317.45,456.43 C309.78,465.74 296.75,481.54 288.50,491.55 C280.25,501.56 265.85,519.09 256.50,530.51 C247.15,541.93 236.10,555.37 231.94,560.39 C223.14,571.00 219.24,576.57 215.75,583.50 C212.37,590.21 209.26,600.53 208.48,607.66 C207.85,613.44 207.89,613.57 212.67,620.18 C217.77,627.22 236.50,651.91 243.41,660.69 ZM 873.17 631.55 C866.31,633.01 832.97,633.63 831.67,632.33 C831.30,631.97 831.00,609.47 831.00,582.33 L 831.00 533.00 L 851.29 533.00 C873.48,533.00 879.51,533.93 887.84,538.67 C901.47,546.42 909.41,559.92 910.67,577.50 C912.66,605.14 897.98,626.29 873.17,631.55 ZM 178.00 480.40 C178.00,480.73 178.25,481.00 178.55,481.00 C178.86,481.00 190.89,470.04 205.30,456.65 C233.72,430.25 238.44,426.00 239.38,426.00 C239.72,426.00 245.10,432.86 251.34,441.25 C257.57,449.64 263.34,457.05 264.16,457.73 C265.43,458.77 268.59,455.44 284.58,436.29 C309.94,405.90 326.32,386.32 340.35,369.63 C346.76,362.00 352.91,354.57 354.02,353.13 L 356.03 350.50 L 357.77 352.77 C358.72,354.02 360.67,356.58 362.09,358.46 L 364.68 361.87 L 371.98 354.52 L 379.27 347.18 L 372.31 336.84 C361.37,320.58 359.54,318.07 358.84,318.29 C358.48,318.41 352.93,324.58 346.50,332.00 C340.07,339.42 330.87,350.00 326.06,355.50 C312.77,370.70 270.43,420.54 268.62,423.13 C267.51,424.71 266.70,425.10 265.98,424.38 C264.89,423.29 259.58,416.49 247.93,401.25 C244.04,396.16 240.55,392.00 240.18,392.01 C239.81,392.01 237.39,395.05 234.82,398.76 C232.24,402.46 224.70,413.15 218.07,422.50 C190.98,460.66 178.00,479.41 178.00,480.40 ZM 439.50 442.43 C455.45,458.03 468.68,470.62 468.90,470.41 C469.64,469.72 454.51,448.33 426.16,410.00 C419.85,401.48 411.95,390.79 408.60,386.26 C405.24,381.72 401.99,378.01 401.37,378.01 C400.26,378.00 388.48,393.25 386.11,397.76 C385.07,399.74 385.86,402.03 392.61,416.51 C396.84,425.58 400.60,433.00 400.98,433.00 C401.72,433.00 408.00,417.03 408.00,415.15 C408.00,414.52 408.56,414.02 409.25,414.04 C409.94,414.05 423.55,426.83 439.50,442.43 ZM 432.00 302.07 C432.00,303.13 432.34,303.99 432.75,303.98 C433.16,303.97 436.82,301.49 440.89,298.48 C444.95,295.47 448.79,293.00 449.43,293.00 C450.06,293.00 453.94,295.44 458.04,298.42 C462.14,301.40 465.80,303.54 466.17,303.17 C466.54,302.80 465.77,299.22 464.46,295.22 C464.34,294.87 464.23,294.52 464.12,294.19 C462.39,288.95 461.55,286.38 462.20,284.28 C462.86,282.13 465.08,280.46 469.50,276.92 L 477.50 270.50 L 456.50 269.50 L 453.34 260.50 C451.61,255.55 449.89,250.60 449.53,249.50 C449.06,248.05 447.86,250.54 445.19,258.50 L 441.50 269.50 L 419.64 270.50 L 427.53 276.50 C431.87,279.80 435.86,282.80 436.40,283.17 C436.99,283.58 436.33,287.01 434.68,291.99 C433.21,296.47 432.00,301.01 432.00,302.07 Z" fill="rgb(0,0,0)"/>
<path d="M 377.00 669.39 C342.18,665.45 316.51,647.89 303.11,618.84 C300.99,614.25 298.77,608.47 298.18,606.00 C291.55,578.23 297.43,548.18 313.48,527.78 C323.59,514.93 341.19,503.89 358.80,499.35 C367.17,497.20 370.63,496.86 384.00,496.89 C397.12,496.93 401.00,497.32 409.29,499.42 C420.80,502.34 432.49,508.25 441.57,515.74 C452.04,524.37 452.19,523.46 438.03,537.29 L 425.81 549.24 L 421.15 544.72 C410.69,534.56 400.41,530.70 384.01,530.76 C370.98,530.82 363.60,532.97 354.72,539.31 C345.56,545.84 340.26,553.63 336.61,565.93 C334.62,572.65 334.48,589.47 336.36,596.50 C337.83,601.98 342.36,611.49 343.99,612.49 C345.48,613.42 348.52,610.69 357.95,600.00 C362.56,594.78 369.06,587.65 372.41,584.18 L 378.50 577.85 L 374.10 573.91 C371.68,571.74 369.88,569.80 370.10,569.60 C370.56,569.17 405.99,557.84 407.50,557.64 C408.94,557.44 408.45,564.44 405.89,580.80 C403.06,598.83 402.65,599.48 397.19,594.55 C394.91,592.50 392.64,590.97 392.13,591.16 C390.54,591.75 360.00,626.85 360.00,628.09 C360.00,629.06 366.98,631.81 373.64,633.47 C390.59,637.69 407.65,633.20 420.23,621.20 L 426.06 615.64 L 431.28 620.56 C444.27,632.81 450.00,638.50 450.00,639.12 C450.00,639.48 447.92,642.10 445.37,644.94 C436.02,655.34 421.70,663.47 406.50,667.02 C398.39,668.91 383.39,670.12 377.00,669.39 ZM 487.25 666.23 L 469.00 665.95 L 468.86 638.73 C468.78,623.75 468.66,586.30 468.61,555.50 L 468.50 499.50 L 529.77 499.24 L 591.05 498.98 L 590.77 515.24 L 590.50 531.50 L 548.73 531.76 L 506.95 532.02 L 507.23 548.26 L 507.50 564.50 L 544.28 564.76 L 581.05 565.02 L 580.78 580.76 L 580.50 596.50 L 543.75 596.76 L 507.00 597.02 L 507.00 615.01 L 507.00 633.00 L 550.50 633.00 L 594.00 633.00 L 594.00 649.03 C594.00,660.97 593.68,665.17 592.75,665.48 C591.15,666.02 511.27,666.59 487.25,666.23 ZM 792.52 665.18 C792.23,664.44 792.00,626.75 792.00,581.42 L 792.00 499.00 L 829.75 499.01 C850.51,499.01 871.33,499.46 876.00,499.99 C897.92,502.51 913.68,509.60 927.02,522.97 C936.95,532.92 941.90,540.94 946.00,553.68 C953.27,576.30 951.24,603.53 940.85,622.81 C932.75,637.83 921.50,648.77 906.75,655.96 C890.86,663.72 883.91,665.22 862.00,665.64 C808.88,666.65 793.04,666.54 792.52,665.18 ZM 873.17 631.55 C897.98,626.29 912.66,605.14 910.67,577.50 C909.41,559.92 901.47,546.42 887.84,538.67 C879.51,533.93 873.48,533.00 851.29,533.00 L 831.00 533.00 L 831.00 582.33 C831.00,609.47 831.30,631.97 831.67,632.33 C832.97,633.63 866.31,633.01 873.17,631.55 ZM 102.01 665.27 C102.03,664.44 104.70,661.01 117.92,644.82 C125.72,635.27 168.36,583.79 171.87,579.69 C173.69,577.56 174.62,579.04 161.00,562.43 C145.99,544.12 128.31,522.22 118.48,509.75 L 110.01 499.00 L 135.75 499.05 L 161.50 499.10 L 165.32 503.80 C167.43,506.38 176.16,517.18 184.72,527.78 C193.29,538.39 200.63,546.94 201.03,546.78 C201.44,546.63 212.74,534.80 226.14,520.51 C239.54,506.21 256.58,488.21 264.00,480.50 C271.42,472.78 291.48,451.86 308.56,433.99 C391.62,347.11 395.64,343.00 397.37,343.00 C398.04,343.00 395.54,346.22 379.51,366.00 C345.57,407.90 326.26,431.29 289.97,474.50 C280.74,485.50 269.65,498.75 265.34,503.94 C236.50,538.67 230.66,545.69 223.59,554.10 C209.02,571.43 203.50,581.70 199.90,598.21 L 197.97 607.04 L 175.21 636.27 L 152.45 665.50 L 127.23 665.77 C113.35,665.91 102.01,665.69 102.01,665.27 ZM 243.41 660.69 C236.50,651.91 217.77,627.22 212.67,620.18 C207.89,613.57 207.85,613.44 208.48,607.66 C209.26,600.53 212.37,590.21 215.75,583.50 C219.24,576.57 223.14,571.00 231.94,560.39 C236.10,555.37 247.15,541.93 256.50,530.51 C265.85,519.09 280.25,501.56 288.50,491.55 C296.75,481.54 309.78,465.74 317.45,456.43 C331.00,439.99 361.21,403.71 379.50,381.92 C384.45,376.03 394.34,364.22 401.48,355.68 C408.61,347.15 414.78,340.36 415.18,340.61 C415.94,341.08 411.50,347.62 393.16,373.00 C387.00,381.52 373.19,400.65 362.47,415.50 C351.74,430.35 339.14,447.67 334.47,454.00 C329.80,460.33 324.10,468.20 321.81,471.50 C319.52,474.80 315.81,479.81 313.57,482.64 C311.33,485.47 305.67,493.06 301.00,499.52 C296.33,505.98 289.80,514.92 286.50,519.39 C283.20,523.86 274.91,535.17 268.07,544.51 C261.24,553.86 251.79,566.66 247.07,572.97 C242.36,579.28 238.37,584.73 238.21,585.08 C238.06,585.43 244.36,593.84 252.21,603.77 C270.21,626.49 292.63,655.15 296.32,660.14 C297.87,662.24 298.86,664.42 298.51,664.98 C298.11,665.63 288.80,665.98 272.69,665.94 L 247.50 665.89 L 243.41 660.69 ZM 616.00 582.50 L 616.00 498.95 L 632.73 499.23 L 649.46 499.50 L 658.32 510.50 C663.20,516.55 675.98,532.53 686.74,546.00 C697.49,559.47 708.51,573.20 711.23,576.50 C713.95,579.80 718.66,585.76 721.71,589.75 C724.75,593.74 727.66,597.00 728.17,597.00 C728.72,597.00 729.05,578.22 729.00,550.25 C728.95,524.54 728.93,502.49 728.95,501.25 L 729.00 499.00 L 748.01 499.00 L 767.01 499.00 L 766.76 582.25 L 766.50 665.50 L 750.53 665.50 L 734.57 665.50 L 712.03 637.38 C699.64,621.91 682.97,601.00 675.00,590.91 C667.03,580.82 659.15,571.01 657.50,569.11 L 654.50 565.67 L 654.00 615.58 L 653.50 665.50 L 634.75 665.77 L 616.00 666.04 L 616.00 582.50 ZM 178.00 480.40 C178.00,479.41 190.98,460.66 218.07,422.50 C224.70,413.15 232.24,402.46 234.82,398.76 C237.39,395.05 239.81,392.01 240.18,392.01 C240.55,392.00 244.04,396.16 247.93,401.25 C259.58,416.49 264.89,423.29 265.98,424.38 C266.70,425.10 267.51,424.71 268.62,423.13 C270.43,420.54 312.77,370.70 326.06,355.50 C330.87,350.00 340.07,339.42 346.50,332.00 C352.93,324.58 358.48,318.41 358.84,318.29 C359.54,318.07 361.37,320.58 372.31,336.84 L 379.27 347.18 L 371.98 354.52 L 364.68 361.87 L 362.09 358.46 C360.67,356.58 358.72,354.02 357.77,352.77 L 356.03 350.50 L 354.02 353.13 C352.91,354.57 346.76,362.00 340.35,369.63 C326.32,386.32 309.94,405.90 284.58,436.29 C268.59,455.44 265.43,458.77 264.16,457.73 C263.34,457.05 257.57,449.64 251.34,441.25 C245.10,432.86 239.72,426.00 239.38,426.00 C238.44,426.00 233.72,430.25 205.30,456.65 C190.89,470.04 178.86,481.00 178.55,481.00 C178.25,481.00 178.00,480.73 178.00,480.40 ZM 439.50 442.43 C423.55,426.83 409.94,414.05 409.25,414.04 C408.56,414.02 408.00,414.52 408.00,415.15 C408.00,417.03 401.72,433.00 400.98,433.00 C400.60,433.00 396.84,425.58 392.61,416.51 C385.86,402.03 385.07,399.74 386.11,397.76 C388.48,393.25 400.26,378.00 401.37,378.01 C401.99,378.01 405.24,381.72 408.60,386.26 C411.95,390.79 419.85,401.48 426.16,410.00 C454.51,448.33 469.64,469.72 468.90,470.41 C468.68,470.62 455.45,458.03 439.50,442.43 ZM 432.00 302.07 C432.00,301.01 433.21,296.47 434.68,291.99 C436.33,287.01 436.99,283.58 436.40,283.17 C435.86,282.80 431.87,279.80 427.53,276.50 L 419.64 270.50 L 430.57 270.00 L 441.50 269.50 L 445.19 258.50 C447.86,250.54 449.06,248.05 449.53,249.50 C449.89,250.60 451.61,255.55 453.34,260.50 L 456.50 269.50 L 467.00 270.00 L 477.50 270.50 L 469.50 276.92 C460.47,284.16 460.63,283.57 464.46,295.22 C465.77,299.22 466.54,302.80 466.17,303.17 C465.80,303.54 462.14,301.40 458.04,298.42 C453.94,295.44 450.06,293.00 449.43,293.00 C448.79,293.00 444.95,295.47 440.89,298.48 C436.82,301.49 433.16,303.97 432.75,303.98 C432.34,303.99 432.00,303.13 432.00,302.07 Z" fill="rgb(252,207,34)"/>
</g>
</svg>